<svg width="1080" height="1080" viewBox="0 0 1080 1080" fill="none" xmlns="http://www.w3.org/2000/svg">
<rect width="1080" height="1080" fill="#C6F45C"/>
<path d="M186.778 637.577C174.837 637.577 164.31 634.889 155.198 629.513C146.399 623.821 142 617.18 142 609.59C142 603.898 143.571 599.471 146.713 596.308C150.17 593.146 154.255 591.565 158.968 591.565C162.425 591.565 165.253 592.671 167.453 594.885C169.652 596.783 172.323 600.261 175.465 605.321C178.922 611.646 182.693 616.547 186.778 620.026C190.863 623.504 196.519 625.244 203.746 625.244C218.829 625.244 227.47 616.705 229.67 599.629C229.984 598.047 230.141 595.992 230.141 593.462C230.141 584.291 227.47 576.385 222.129 569.744C216.787 562.787 208.774 554.881 198.09 546.027C187.72 537.488 179.865 530.057 174.523 523.732C169.495 517.091 166.981 509.185 166.981 500.014C166.981 489.579 169.966 480.091 175.937 471.553C182.221 463.015 190.391 456.374 200.447 451.63C210.816 446.887 221.657 444.515 232.97 444.515C245.224 444.515 255.28 446.887 263.136 451.63C270.991 456.374 274.448 462.382 273.505 469.656C272.562 474.399 270.52 478.036 267.378 480.566C264.235 483.096 260.779 484.361 257.008 484.361C252.295 484.361 248.681 483.254 246.167 481.04C243.653 478.827 240.982 475.506 238.154 471.079C235.012 466.019 231.713 462.224 228.256 459.694C225.114 457.164 220.557 455.899 214.587 455.899C208.617 455.899 203.589 457.481 199.504 460.643C195.733 463.805 193.534 468.075 192.905 473.451C192.591 474.715 192.434 476.771 192.434 479.617C192.434 488.155 194.948 495.745 199.975 502.386C205.317 509.027 213.016 516.617 223.071 525.155C234.069 534.642 242.239 543.022 247.581 550.296C253.237 557.253 256.065 565.475 256.065 574.962C256.065 584.449 252.923 594.095 246.638 603.898C240.668 613.701 232.341 621.765 221.657 628.09C210.973 634.415 199.347 637.577 186.778 637.577Z" fill="#0A1A2F"/>
<path d="M355.361 639C335.879 639 320.796 632.359 310.112 619.077C299.742 605.479 294.557 587.928 294.557 566.424C294.557 559.467 295.343 550.928 296.914 540.809C300.371 522.151 306.969 505.39 316.711 490.527C326.766 475.664 338.864 464.122 353.004 455.899C367.144 447.361 382.07 443.092 397.782 443.092C417.892 443.092 433.29 449.733 443.974 463.015C454.972 475.98 460.471 493.215 460.471 514.719C460.471 522.941 459.528 531.638 457.643 540.809C453.558 560.732 446.173 578.125 435.489 592.988C425.12 607.851 412.865 619.235 398.724 627.141C384.584 635.047 370.13 639 355.361 639ZM371.858 627.141C384.113 627.141 394.954 621.291 404.381 609.59C414.122 597.889 420.878 581.919 424.648 561.68C426.534 551.561 427.477 541.283 427.477 530.847C427.477 509.66 423.549 491.634 415.693 476.771C408.151 461.908 397.31 454.476 383.17 454.476C371.229 454.476 360.231 460.327 350.176 472.027C340.435 483.728 333.679 499.856 329.908 520.412C328.023 530.215 327.08 540.334 327.08 550.77C327.08 572.274 331.008 590.458 338.864 605.321C346.719 619.868 357.717 627.141 371.858 627.141Z" fill="#0A1A2F"/>
<path d="M594.325 444.563H655.807V467.25H656.18C660.403 463.625 664.812 460.25 669.408 457.125C674.128 453.875 679.034 451.063 684.127 448.688C689.219 446.313 694.498 444.438 699.963 443.063C705.552 441.688 711.328 441 717.29 441C731.201 441 743.187 443.625 753.248 448.875C763.309 454 771.072 462.063 776.537 473.063C781.257 468.813 786.225 464.75 791.442 460.875C796.658 456.875 802.061 453.438 807.651 450.563C813.364 447.688 819.326 445.375 825.537 443.625C831.747 441.875 838.206 441 844.913 441C855.346 441 864.724 442.438 873.046 445.313C881.368 448.188 888.448 452.563 894.285 458.438C900.123 464.313 904.532 471.875 907.513 481.125C910.619 490.25 912.171 501.063 912.171 513.563V606.563H939V638.813H848.826V606.563H876.027V517.875C876.027 503 872.301 491.75 864.848 484.125C857.396 476.375 846.652 472.5 832.616 472.5C824.295 472.5 815.786 474.5 807.092 478.5C798.397 482.5 790.945 487.563 784.735 493.688V606.563H811.377V638.813H721.389V606.563H748.59V517.875C748.59 503 744.802 491.75 737.225 484.125C729.773 476.375 719.029 472.5 704.994 472.5C696.92 472.5 688.784 474.438 680.587 478.313C672.389 482.188 664.626 487 657.298 492.75V606.563H684.499V638.813H594.325V606.563H621.154V476.813H594.325V444.563Z" fill="#0A1A2F"/>
<path d="M561.371 545.233C561.371 561.272 548.451 574.275 532.513 574.275C516.575 574.275 503.655 561.272 503.655 545.233C503.655 529.193 516.575 516.191 532.513 516.191C548.451 516.191 561.371 529.193 561.371 545.233Z" fill="#0A1A2F"/>
</svg>
