<svg width="130" height="24" viewBox="0 0 130 24" fill="none" xmlns="http://www.w3.org/2000/svg">
<path d="M17.5101 23.576C15.9112 23.576 14.6734 23.0397 13.7966 21.9671C12.9456 20.8689 12.5201 19.4516 12.5201 17.715C12.5201 17.1531 12.5845 16.4636 12.7135 15.6464C12.9972 14.1396 13.5387 12.7861 14.3381 11.5858C15.1634 10.3855 16.1562 9.45335 17.3167 8.78936C18.4772 8.09982 19.7021 7.75506 20.9915 7.75506C22.642 7.75506 23.9056 8.29136 24.7824 9.36396C25.685 10.411 26.1363 11.8029 26.1363 13.5395C26.1363 14.2035 26.0589 14.9058 25.9042 15.6464C25.5689 17.2553 24.9629 18.6599 24.0861 19.8602C23.2351 21.0605 22.2293 21.9799 21.0689 22.6183C19.9084 23.2568 18.7221 23.576 17.5101 23.576ZM18.864 22.6183C19.8697 22.6183 20.7594 22.1459 21.5331 21.2009C22.3325 20.256 22.8869 18.9663 23.1964 17.3319C23.3511 16.5147 23.4285 15.6847 23.4285 14.8419C23.4285 13.1309 23.1061 11.6752 22.4614 10.4749C21.8425 9.27458 20.9528 8.67443 19.7924 8.67443C18.8124 8.67443 17.9098 9.14689 17.0846 10.0918C16.2852 11.0367 15.7307 12.3392 15.4213 13.9992C15.2665 14.7908 15.1892 15.6081 15.1892 16.4508C15.1892 18.1874 15.5115 19.6559 16.1562 20.8562C16.8009 22.0309 17.7035 22.6183 18.864 22.6183Z" fill="#1B1B1B"/>
<path d="M3.67482 23.4611C2.69487 23.4611 1.83096 23.244 1.08311 22.8099C0.361035 22.3502 0 21.8139 0 21.2009C0 20.7413 0.128941 20.3837 0.386823 20.1283C0.670494 19.873 1.00574 19.7453 1.39256 19.7453C1.67623 19.7453 1.90833 19.8346 2.08885 20.0134C2.26936 20.1666 2.48856 20.4476 2.74645 20.8562C3.03012 21.3669 3.33957 21.7628 3.67482 22.0437C4.01007 22.3246 4.47426 22.4651 5.06738 22.4651C6.30522 22.4651 7.01439 21.7756 7.19491 20.3965C7.2207 20.2688 7.23359 20.1028 7.23359 19.8985C7.23359 19.1579 7.01439 18.5194 6.57599 17.9831C6.1376 17.4213 5.48 16.7828 4.6032 16.0678C3.75219 15.3782 3.10748 14.7781 2.66908 14.2673C2.25647 13.731 2.05016 13.0925 2.05016 12.3519C2.05016 11.5092 2.29515 10.743 2.78513 10.0535C3.30089 9.36397 3.97139 8.82766 4.79661 8.44459C5.64762 8.06151 6.53731 7.86998 7.46569 7.86998C8.47143 7.86998 9.29665 8.06151 9.94136 8.44459C10.5861 8.82766 10.8697 9.31289 10.7924 9.90027C10.715 10.2833 10.5474 10.577 10.2895 10.7813C10.0316 10.9856 9.74795 11.0878 9.43849 11.0878C9.05166 11.0878 8.7551 10.9984 8.54879 10.8196C8.34249 10.6409 8.12329 10.3727 7.89119 10.0152C7.63331 9.60658 7.36254 9.30012 7.07887 9.09581C6.82098 8.89151 6.44705 8.78936 5.95708 8.78936C5.4671 8.78936 5.05449 8.91704 4.71924 9.17243C4.40978 9.42781 4.22927 9.77258 4.17769 10.2067C4.1519 10.3089 4.13901 10.4749 4.13901 10.7047C4.13901 11.3943 4.34531 12.0072 4.75793 12.5435C5.19633 13.0798 5.82814 13.6927 6.65336 14.3822C7.55595 15.1484 8.22644 15.8251 8.66484 16.4125C9.12903 16.9744 9.36112 17.6384 9.36112 18.4045C9.36112 19.1707 9.10324 19.9496 8.58748 20.7413C8.0975 21.5329 7.41411 22.1842 6.53731 22.6949C5.66051 23.2057 4.70635 23.4611 3.67482 23.4611Z" fill="#1B1B1B"/>
<path d="M112.172 0H117.187V9.6H117.279C117.564 9.31735 117.89 9.05489 118.257 8.81262C118.634 8.56025 119.027 8.34322 119.435 8.16151C119.842 7.97981 120.265 7.83849 120.704 7.73754C121.142 7.63659 121.601 7.58612 122.08 7.58612C122.926 7.58612 123.69 7.70221 124.373 7.93438C125.056 8.16656 125.637 8.51987 126.116 8.99432C126.595 9.46877 126.962 10.0795 127.217 10.8265C127.482 11.5634 127.615 12.4366 127.615 13.4461V20.9565H130V23.5609H122.477V20.9565H124.648V13.7943C124.648 12.5931 124.338 11.6845 123.716 11.0688C123.104 10.4429 122.222 10.13 121.071 10.13C120.418 10.13 119.756 10.2864 119.083 10.5994C118.41 10.9022 117.778 11.2858 117.187 11.7502V20.9565H119.48V23.5609H111.958V20.9565H114.343V2.60442H112.172V0Z" fill="#1B1B1B"/>
<path d="M107.866 12.053C107.438 11.2959 106.892 10.7407 106.23 10.3874C105.578 10.0341 104.818 9.85741 103.952 9.85741C103.289 9.85741 102.667 9.99369 102.086 10.2662C101.505 10.5388 100.996 10.9274 100.557 11.4322C100.129 11.9369 99.7877 12.5527 99.5328 13.2795C99.2882 13.9962 99.1658 14.7987 99.1658 15.6871C99.1658 16.5653 99.2882 17.3577 99.5328 18.0644C99.7877 18.771 100.134 19.3767 100.573 19.8814C101.011 20.376 101.515 20.7596 102.086 21.0322C102.667 21.2946 103.289 21.4259 103.952 21.4259C104.93 21.4259 105.781 21.1937 106.505 20.7293C107.229 20.2549 107.805 19.5634 108.233 18.6549L110.588 19.8057C110.282 20.4517 109.905 21.0322 109.456 21.547C109.008 22.0618 108.498 22.5009 107.927 22.8644C107.366 23.2278 106.745 23.5054 106.062 23.6972C105.389 23.8991 104.675 24 103.921 24C102.82 24 101.801 23.7981 100.863 23.3943C99.9355 22.9804 99.1302 22.405 98.4472 21.6681C97.7744 20.9312 97.2495 20.053 96.8723 19.0334C96.4952 18.0139 96.3066 16.8984 96.3066 15.6871C96.3066 14.4757 96.5054 13.3603 96.9029 12.3407C97.3004 11.3211 97.8458 10.4479 98.5389 9.72114C99.2321 8.98423 100.042 8.40883 100.97 7.99495C101.898 7.58107 102.892 7.37413 103.952 7.37413C104.951 7.37413 105.894 7.54574 106.78 7.88896C107.677 8.23218 108.462 8.75205 109.135 9.44858H110.741V12.053H107.866Z" fill="#1B1B1B"/>
<path d="M94.7072 11.1899H91.8021V10.2208C91.4657 10.2208 91.1191 10.2864 90.7624 10.4177C90.4158 10.5388 90.0896 10.7306 89.7838 10.9931C89.478 11.2454 89.2079 11.5735 88.9734 11.9773C88.7492 12.371 88.5861 12.8404 88.4841 13.3855V20.9565H91.1752V23.5609H83.3161V20.9565H85.5026L85.5178 10.4782H83.3161V7.87382H88.3771V10.0391C88.5606 9.71609 88.7645 9.4183 88.9887 9.14574C89.2232 8.86309 89.478 8.62082 89.7532 8.41893C90.0386 8.20694 90.3495 8.04543 90.6859 7.93438C91.0325 7.81325 91.4046 7.75268 91.8021 7.75268C92.3322 7.75268 92.8316 7.75268 93.3005 7.75268C93.7694 7.75268 94.2383 7.76278 94.7072 7.78297V11.1899Z" fill="#1B1B1B"/>
<path d="M69.5916 16.0808C69.5916 16.5249 69.6222 16.9338 69.6833 17.3073C69.7547 17.6707 69.8515 18.0189 69.9739 18.3521C70.351 19.3615 70.9524 20.1237 71.7781 20.6385C72.614 21.1432 73.5569 21.3956 74.6068 21.3956C75.4324 21.3956 76.2326 21.2845 77.0073 21.0625C77.7922 20.8303 78.6128 20.4719 79.4691 19.9874L80.6158 21.9104C79.5761 22.617 78.5313 23.142 77.4813 23.4852C76.4314 23.8284 75.3407 24 74.2092 24C73.1389 24 72.1451 23.8233 71.2277 23.47C70.3204 23.1167 69.5355 22.5918 68.873 21.8953C68.2206 21.1987 67.7058 20.3306 67.3287 19.2909C66.9617 18.2511 66.7782 17.0397 66.7782 15.6568C66.7782 14.5363 66.9362 13.4814 67.2522 12.4921C67.5682 11.4927 68.0371 10.6246 68.6589 9.8877C69.2909 9.14069 70.0707 8.55016 70.9983 8.11609C71.9259 7.68202 73.0064 7.46498 74.2398 7.46498C75.4324 7.46498 76.4263 7.64669 77.2214 8.01009C78.0267 8.36341 78.6791 8.83786 79.1785 9.43344C79.6882 10.0189 80.0705 10.6902 80.3253 11.4473C80.5903 12.2044 80.7738 12.9767 80.8757 13.764C80.9267 14.1476 80.9573 14.5363 80.9675 14.93C80.9879 15.3237 80.9981 15.7073 80.9981 16.0808H69.5916ZM74.041 9.82713C73.3785 9.82713 72.7974 9.92303 72.298 10.1148C71.8087 10.2965 71.3907 10.564 71.0442 10.9174C70.6976 11.2606 70.4173 11.6845 70.2032 12.1893C69.9993 12.694 69.8464 13.2593 69.7445 13.8852H77.9553C77.9146 13.2997 77.8177 12.7596 77.6648 12.265C77.5221 11.7703 77.2979 11.3413 76.992 10.9779C76.6862 10.6145 76.2938 10.3319 75.8147 10.13C75.3356 9.92808 74.7444 9.82713 74.041 9.82713Z" fill="#1B1B1B"/>
<path d="M37.1214 7.87382H42.1672V9.70599H42.1977C42.5443 9.41325 42.9062 9.14069 43.2833 8.88833C43.6707 8.62587 44.0733 8.39874 44.4913 8.20694C44.9092 8.01514 45.3424 7.86372 45.7909 7.75268C46.2496 7.64164 46.7236 7.58612 47.2129 7.58612C48.3546 7.58612 49.3383 7.79811 50.1639 8.22208C50.9896 8.63596 51.6267 9.28707 52.0752 10.1754C52.4625 9.83218 52.8703 9.5041 53.2984 9.19117C53.7265 8.86814 54.1699 8.59054 54.6287 8.35836C55.0975 8.12618 55.5868 7.93943 56.0965 7.79811C56.6062 7.65678 57.1362 7.58612 57.6867 7.58612C58.5429 7.58612 59.3125 7.70221 59.9955 7.93438C60.6785 8.16656 61.2595 8.51987 61.7386 8.99432C62.2177 9.46877 62.5795 10.0795 62.8242 10.8265C63.079 11.5634 63.2064 12.4366 63.2064 13.4461V20.9565H65.4082V23.5609H58.0078V20.9565H60.2401V13.7943C60.2401 12.5931 59.9343 11.6845 59.3227 11.0688C58.7111 10.4429 57.8294 10.13 56.6775 10.13C55.9946 10.13 55.2963 10.2915 54.5828 10.6145C53.8692 10.9375 53.2576 11.3464 52.748 11.841V20.9565H54.9345V23.5609H47.5493V20.9565H49.7817V13.7943C49.7817 12.5931 49.4708 11.6845 48.849 11.0688C48.2374 10.4429 47.3556 10.13 46.2038 10.13C45.5412 10.13 44.8735 10.2864 44.2008 10.5994C43.528 10.9123 42.8909 11.3009 42.2895 11.7653V20.9565H44.5219V23.5609H37.1214V20.9565H39.3232V10.4782H37.1214V7.87382Z" fill="#1B1B1B"/>
<path d="M34.417 16.0036C34.417 17.2989 33.3566 18.349 32.0486 18.349C30.7407 18.349 29.6803 17.2989 29.6803 16.0036C29.6803 14.7083 30.7407 13.6583 32.0486 13.6583C33.3566 13.6583 34.417 14.7083 34.417 16.0036Z" fill="#1B1B1B"/>
</svg>
